<svg width="640" height="640" xmlns="http://www.w3.org/2000/svg">
  <!-- The SVG file for background border with default background color -->
  <path d="
    M40,20
    L600,20
    a20,20 0 0 1 20,20
    L620,600
    a20,20 0 0 1 -20,20
    L40,620
    a20,20 0 0 1 -20,-20
    L20,40
    a20,20 0 0 1 20,-20
    Z" fill="#2E2E2F" />

  <!-- The lower triangle with light color -->
  <path d="
    M60,60
    L60,580
    L580,580
    Z" fill="#E2E4EC" />

  <!-- The R symbol on upper triangle -->
  <path d="
    M110,80
    L480,80
    a120,120 0 0 1 120,120
    a120,120 0 0 1 -120,120
    L360,320
    L360,260
    L460,260
    a60,60 0 0 0 60,-60
    a60,60 0 0 0 -60,-60
    L170,140
    Z" fill="#E2E4EC" />
</svg>
